<svg width="732" height="97" viewBox="0 0 732 97" fill="none" xmlns="http://www.w3.org/2000/svg">
<g clip-path="url(#clip0_10_2)">
<path d="M42.376 50.4C45.96 50.4 48.6907 49.5893 50.568 47.968C52.5307 46.2613 53.512 43.7013 53.512 40.288C53.512 37.0453 52.488 34.5707 50.44 32.864C48.4773 31.072 45.576 30.176 41.736 30.176C40.3707 30.176 39.2187 30.2187 38.28 30.304C37.4267 30.304 36.5307 30.3893 35.592 30.56V50.4H42.376ZM35.72 91.488C34.7813 91.744 33.288 92 31.24 92.256C29.2773 92.512 27.3147 92.64 25.352 92.64C23.3893 92.64 21.64 92.4693 20.104 92.128C18.6533 91.872 17.416 91.36 16.392 90.592C15.368 89.824 14.6 88.7573 14.088 87.392C13.576 86.0267 13.32 84.2347 13.32 82.016V21.728C13.32 19.936 13.7893 18.5707 14.728 17.632C15.752 16.608 17.1173 15.7973 18.824 15.2C21.7253 14.176 25.0107 13.4507 28.68 13.024C32.4347 12.512 36.1893 12.256 39.944 12.256C51.72 12.256 60.7227 14.7733 66.952 19.808C73.1813 24.8427 76.296 31.6693 76.296 40.288C76.296 44.4693 75.6133 48.2667 74.248 51.68C72.968 55.008 71.0053 57.9093 68.36 60.384C65.8 62.7733 62.5147 64.6507 58.504 66.016C54.5787 67.296 50.0133 67.936 44.808 67.936H35.72V91.488ZM150.031 63.328C150.031 67.936 149.22 72.16 147.599 76C146.063 79.7547 143.802 82.9973 140.815 85.728C137.828 88.3733 134.202 90.4213 129.935 91.872C125.668 93.3227 120.847 94.048 115.471 94.048C110.095 94.048 105.274 93.3227 101.007 91.872C96.7403 90.4213 93.1137 88.3733 90.127 85.728C87.1403 82.9973 84.8363 79.7547 83.215 76C81.679 72.16 80.911 67.936 80.911 63.328V14.432C81.8497 14.2613 83.343 14.048 85.391 13.792C87.439 13.4507 89.4017 13.28 91.279 13.28C93.2417 13.28 94.9483 13.4507 96.399 13.792C97.935 14.048 99.215 14.56 100.239 15.328C101.263 16.096 102.031 17.1627 102.543 18.528C103.055 19.8933 103.311 21.6853 103.311 23.904V62.944C103.311 67.04 104.42 70.24 106.639 72.544C108.943 74.848 111.887 76 115.471 76C119.14 76 122.084 74.848 124.303 72.544C126.522 70.24 127.631 67.04 127.631 62.944V14.432C128.57 14.2613 130.063 14.048 132.111 13.792C134.159 13.4507 136.122 13.28 137.999 13.28C139.962 13.28 141.668 13.4507 143.119 13.792C144.655 14.048 145.935 14.56 146.959 15.328C147.983 16.096 148.751 17.1627 149.263 18.528C149.775 19.8933 150.031 21.6853 150.031 23.904V63.328ZM230.167 89.312C228.972 90.5067 227.223 91.4027 224.919 92C222.7 92.6827 220.012 93.024 216.855 93.024C213.698 93.024 210.711 92.5547 207.895 91.616C205.079 90.6773 202.775 88.416 200.983 84.832L188.311 58.976C187.031 56.3307 185.879 53.856 184.855 51.552C183.831 49.1627 182.722 46.432 181.527 43.36L180.759 43.488C181.1 48.096 181.271 52.7893 181.271 57.568C181.356 62.3467 181.399 67.04 181.399 71.648V91.488C180.46 91.744 179.01 92 177.047 92.256C175.17 92.512 173.292 92.64 171.415 92.64C169.538 92.64 167.874 92.512 166.423 92.256C164.972 92 163.778 91.488 162.839 90.72C161.9 89.952 161.175 88.928 160.663 87.648C160.151 86.2827 159.895 84.5333 159.895 82.4V18.4C161.09 16.6933 162.924 15.4133 165.399 14.56C167.874 13.7067 170.519 13.28 173.335 13.28C176.492 13.28 179.479 13.792 182.295 14.816C185.196 15.7547 187.5 17.9733 189.207 21.472L202.007 47.328C203.287 49.9733 204.439 52.4907 205.463 54.88C206.487 57.184 207.596 59.872 208.791 62.944L209.431 62.816C209.09 58.208 208.876 53.6 208.791 48.992C208.706 44.384 208.663 39.776 208.663 35.168V14.432C209.602 14.176 211.01 13.92 212.887 13.664C214.85 13.408 216.77 13.28 218.647 13.28C222.402 13.28 225.26 13.9627 227.223 15.328C229.186 16.608 230.167 19.3387 230.167 23.52V89.312ZM236.786 32.352C236.189 31.4133 235.634 30.1333 235.122 28.512C234.61 26.8907 234.354 25.184 234.354 23.392C234.354 20.064 235.079 17.6747 236.53 16.224C238.066 14.7733 240.029 14.048 242.418 14.048H298.226C298.823 14.9867 299.378 16.2667 299.89 17.888C300.402 19.5093 300.658 21.216 300.658 23.008C300.658 26.336 299.89 28.7253 298.354 30.176C296.903 31.6267 294.983 32.352 292.594 32.352H278.386V91.488C277.447 91.744 275.954 92 273.906 92.256C271.943 92.512 269.981 92.64 268.018 92.64C266.055 92.64 264.306 92.4693 262.77 92.128C261.319 91.872 260.082 91.36 259.058 90.592C258.034 89.824 257.266 88.7573 256.754 87.392C256.242 86.0267 255.986 84.2347 255.986 82.016V32.352H236.786Z" fill="#94FF41"/>
<path d="M50.568 47.968L52.5289 50.2385L52.5365 50.2318L50.568 47.968ZM50.44 32.864L48.4172 35.0795L48.4673 35.1252L48.5194 35.1687L50.44 32.864ZM38.28 30.304V33.304H38.4161L38.5516 33.2917L38.28 30.304ZM35.592 30.56L35.0553 27.6084L32.592 28.0563V30.56H35.592ZM35.592 50.4H32.592V53.4H35.592V50.4ZM35.72 91.488L36.5094 94.3823L38.72 93.7794V91.488H35.72ZM31.24 92.256L30.8679 89.2792L30.8599 89.2802L30.852 89.2812L31.24 92.256ZM20.104 92.128L20.7548 89.1994L20.6904 89.1851L20.6254 89.1736L20.104 92.128ZM16.392 90.592L14.592 92.992L14.592 92.992L16.392 90.592ZM14.088 87.392L11.279 88.4454L11.279 88.4454L14.088 87.392ZM14.728 17.632L16.8493 19.7533L16.8493 19.7533L14.728 17.632ZM18.824 15.2L19.8151 18.0316L19.8225 18.029L18.824 15.2ZM28.68 13.024L29.0265 16.0039L29.056 16.0005L29.0853 15.9965L28.68 13.024ZM66.952 19.808L65.0662 22.1412L66.952 19.808ZM74.248 51.68L71.4626 50.5658L71.4551 50.5844L71.448 50.6031L74.248 51.68ZM68.36 60.384L70.407 62.5772L70.4095 62.5748L68.36 60.384ZM58.504 66.016L59.4341 68.8682L59.4525 68.8622L59.4708 68.8559L58.504 66.016ZM35.72 67.936V64.936H32.72V67.936H35.72ZM42.376 53.4C46.3655 53.4 49.9083 52.5017 52.5289 50.2385L48.6071 45.6975C47.473 46.677 45.5545 47.4 42.376 47.4V53.4ZM52.5365 50.2318C55.3445 47.7901 56.512 44.2814 56.512 40.288H50.512C50.512 43.1213 49.7169 44.7325 48.5995 45.7042L52.5365 50.2318ZM56.512 40.288C56.512 36.3666 55.24 32.9588 52.3606 30.5593L48.5194 35.1687C49.7361 36.1825 50.512 37.7241 50.512 40.288H56.512ZM52.4628 30.6485C49.7446 28.1667 45.9951 27.176 41.736 27.176V33.176C45.1569 33.176 47.2101 33.9773 48.4172 35.0795L52.4628 30.6485ZM41.736 27.176C40.3163 27.176 39.0675 27.22 38.0084 27.3163L38.5516 33.2917C39.3699 33.2173 40.425 33.176 41.736 33.176V27.176ZM38.28 27.304C37.2271 27.304 36.1507 27.4092 35.0553 27.6084L36.1287 33.5116C36.9107 33.3694 37.6263 33.304 38.28 33.304V27.304ZM32.592 30.56V50.4H38.592V30.56H32.592ZM35.592 53.4H42.376V47.4H35.592V53.4ZM34.9306 88.5937C34.2099 88.7903 32.8948 89.0258 30.8679 89.2792L31.6121 95.2328C33.6812 94.9742 35.3527 94.6977 36.5094 94.3823L34.9306 88.5937ZM30.852 89.2812C29.0169 89.5206 27.1838 89.64 25.352 89.64V95.64C27.4455 95.64 29.5378 95.5034 31.628 95.2308L30.852 89.2812ZM25.352 89.64C23.5569 89.64 22.0323 89.4833 20.7548 89.1994L19.4532 95.0566C21.2477 95.4553 23.2217 95.64 25.352 95.64V89.64ZM20.6254 89.1736C19.5683 88.9871 18.786 88.6375 18.192 88.192L14.592 92.992C16.046 94.0825 17.7384 94.7569 19.5826 95.0824L20.6254 89.1736ZM18.192 88.192C17.6872 87.8134 17.2367 87.2446 16.897 86.3386L11.279 88.4454C11.9633 90.2701 13.0488 91.8346 14.592 92.992L18.192 88.192ZM16.897 86.3386C16.5593 85.438 16.32 84.043 16.32 82.016H10.32C10.32 84.4263 10.5927 86.6153 11.279 88.4454L16.897 86.3386ZM16.32 82.016V21.728H10.32V82.016H16.32ZM16.32 21.728C16.32 20.4453 16.6477 19.9549 16.8493 19.7533L12.6067 15.5107C10.9309 17.1864 10.32 19.4267 10.32 21.728H16.32ZM16.8493 19.7533C17.4856 19.1171 18.4306 18.5161 19.815 18.0316L17.833 12.3684C15.804 13.0785 14.0184 14.0989 12.6067 15.5107L16.8493 19.7533ZM19.8225 18.029C22.4757 17.0925 25.5367 16.4097 29.0265 16.0039L28.3335 10.0441C24.4847 10.4916 20.9749 11.2595 17.8255 12.371L19.8225 18.029ZM29.0853 15.9965C32.7069 15.5026 36.3262 15.256 39.944 15.256V9.256C36.0525 9.256 32.1624 9.52136 28.2747 10.0515L29.0853 15.9965ZM39.944 15.256C51.3457 15.256 59.5713 17.7001 65.0662 22.1412L68.8378 17.4748C61.8741 11.8466 52.0943 9.256 39.944 9.256V15.256ZM65.0662 22.1412C70.5317 26.5585 73.296 32.4965 73.296 40.288H79.296C79.296 30.8422 75.831 23.1269 68.8378 17.4748L65.0662 22.1412ZM73.296 40.288C73.296 44.1397 72.668 47.5522 71.4626 50.5658L77.0334 52.7942C78.5586 48.9812 79.296 44.7989 79.296 40.288H73.296ZM71.448 50.6031C70.3334 53.5009 68.6302 56.0232 66.3105 58.1932L70.4095 62.5748C73.3805 59.7955 75.6026 56.5151 77.048 52.7569L71.448 50.6031ZM66.313 58.1908C64.1214 60.2364 61.2288 61.9193 57.5372 63.176L59.4708 68.8559C63.8005 67.382 67.4787 65.3102 70.407 62.5772L66.313 58.1908ZM57.5739 63.1638C54.0154 64.3242 49.776 64.936 44.808 64.936V70.936C50.2507 70.936 55.1419 70.2678 59.4341 68.8682L57.5739 63.1638ZM44.808 64.936H35.72V70.936H44.808V64.936ZM32.72 67.936V91.488H38.72V67.936H32.72ZM147.599 76L144.835 74.8331L144.829 74.8486L144.822 74.8641L147.599 76ZM140.815 85.728L142.804 87.9738L142.822 87.9581L142.839 87.9421L140.815 85.728ZM129.935 91.872L130.901 94.7123L129.935 91.872ZM101.007 91.872L100.041 94.7123L100.041 94.7123L101.007 91.872ZM90.127 85.728L88.1027 87.9421L88.1202 87.9581L88.1379 87.9738L90.127 85.728ZM83.215 76L80.4296 77.1142L80.4447 77.152L80.4608 77.1893L83.215 76ZM80.911 14.432L80.3743 11.4804L77.911 11.9283V14.432H80.911ZM85.391 13.792L85.7631 16.7688L85.8238 16.7612L85.8842 16.7512L85.391 13.792ZM96.399 13.792L95.7119 16.7123L95.8082 16.7349L95.9058 16.7512L96.399 13.792ZM100.239 15.328L102.039 12.928L102.039 12.928L100.239 15.328ZM102.543 18.528L99.734 19.5814L99.734 19.5814L102.543 18.528ZM106.639 72.544L104.478 74.6249L104.498 74.6453L104.518 74.6653L106.639 72.544ZM124.303 72.544L122.142 70.4631L122.142 70.4631L124.303 72.544ZM127.631 14.432L127.094 11.4804L124.631 11.9283V14.432H127.631ZM132.111 13.792L132.483 16.7688L132.544 16.7612L132.604 16.7512L132.111 13.792ZM143.119 13.792L142.432 16.7123L142.528 16.7349L142.626 16.7512L143.119 13.792ZM146.959 15.328L145.159 17.728L145.159 17.728L146.959 15.328ZM149.263 18.528L146.454 19.5814L146.454 19.5814L149.263 18.528ZM147.031 63.328C147.031 67.5776 146.285 71.3995 144.835 74.8331L150.363 77.1669C152.156 72.9205 153.031 68.2944 153.031 63.328H147.031ZM144.822 74.8641C143.454 78.2092 141.449 81.0834 138.791 83.5139L142.839 87.9421C146.154 84.9113 148.672 81.3001 150.376 77.1359L144.822 74.8641ZM138.826 83.4822C136.174 85.8313 132.907 87.6927 128.969 89.0317L130.901 94.7123C135.496 93.15 139.483 90.9154 142.804 87.9738L138.826 83.4822ZM128.969 89.0317C125.067 90.3585 120.58 91.048 115.471 91.048V97.048C121.114 97.048 126.27 96.2869 130.901 94.7123L128.969 89.0317ZM115.471 91.048C110.362 91.048 105.875 90.3585 101.973 89.0317L100.041 94.7123C104.672 96.2869 109.828 97.048 115.471 97.048V91.048ZM101.973 89.0317C98.0346 87.6927 94.7683 85.8313 92.1161 83.4822L88.1379 87.9738C91.4591 90.9154 95.4461 93.15 100.041 94.7123L101.973 89.0317ZM92.1513 83.5139C89.481 81.0725 87.4242 78.1803 85.9692 74.8107L80.4608 77.1893C82.2484 81.3291 84.7996 84.9221 88.1027 87.9421L92.1513 83.5139ZM86.0004 74.8858C84.6215 71.4385 83.911 67.5978 83.911 63.328H77.911C77.911 68.2742 78.7365 72.8815 80.4296 77.1142L86.0004 74.8858ZM83.911 63.328V14.432H77.911V63.328H83.911ZM81.4477 17.3836C82.2989 17.2288 83.7222 17.0239 85.7631 16.7688L85.0189 10.8152C82.9638 11.072 81.4004 11.2938 80.3743 11.4804L81.4477 17.3836ZM85.8842 16.7512C87.7861 16.4342 89.5832 16.28 91.279 16.28V10.28C89.2201 10.28 87.0919 10.4671 84.8978 10.8328L85.8842 16.7512ZM91.279 16.28C93.0786 16.28 94.5444 16.4375 95.7119 16.7123L97.0861 10.8717C95.3523 10.4638 93.4047 10.28 91.279 10.28V16.28ZM95.9058 16.7512C97.0691 16.9451 97.8741 17.3043 98.439 17.728L102.039 12.928C100.556 11.8156 98.8009 11.1509 96.8922 10.8328L95.9058 16.7512ZM98.439 17.728C98.9438 18.1066 99.3943 18.6754 99.734 19.5814L105.352 17.4746C104.668 15.6499 103.582 14.0854 102.039 12.928L98.439 17.728ZM99.734 19.5814C100.072 20.482 100.311 21.877 100.311 23.904H106.311C106.311 21.4937 106.038 19.3047 105.352 17.4746L99.734 19.5814ZM100.311 23.904V62.944H106.311V23.904H100.311ZM100.311 62.944C100.311 67.5892 101.582 71.6175 104.478 74.6249L108.8 70.4631C107.259 68.8625 106.311 66.4908 106.311 62.944H100.311ZM104.518 74.6653C107.443 77.5908 111.179 79 115.471 79V73C112.595 73 110.443 72.1052 108.76 70.4227L104.518 74.6653ZM115.471 79C119.825 79 123.595 77.6043 126.464 74.6249L122.142 70.4631C120.574 72.0917 118.456 73 115.471 73V79ZM126.464 74.6249C129.36 71.6175 130.631 67.5892 130.631 62.944H124.631C124.631 66.4908 123.683 68.8625 122.142 70.4631L126.464 74.6249ZM130.631 62.944V14.432H124.631V62.944H130.631ZM128.168 17.3836C129.019 17.2288 130.442 17.0239 132.483 16.7688L131.739 10.8152C129.684 11.072 128.12 11.2938 127.094 11.4804L128.168 17.3836ZM132.604 16.7512C134.506 16.4342 136.303 16.28 137.999 16.28V10.28C135.94 10.28 133.812 10.4671 131.618 10.8328L132.604 16.7512ZM137.999 16.28C139.799 16.28 141.264 16.4375 142.432 16.7123L143.806 10.8717C142.072 10.4638 140.125 10.28 137.999 10.28V16.28ZM142.626 16.7512C143.789 16.9451 144.594 17.3043 145.159 17.728L148.759 12.928C147.276 11.8156 145.521 11.1509 143.612 10.8328L142.626 16.7512ZM145.159 17.728C145.664 18.1066 146.114 18.6754 146.454 19.5814L152.072 17.4746C151.388 15.6499 150.302 14.0854 148.759 12.928L145.159 17.728ZM146.454 19.5814C146.792 20.482 147.031 21.877 147.031 23.904H153.031C153.031 21.4937 152.758 19.3047 152.072 17.4746L146.454 19.5814ZM147.031 23.904V63.328H153.031V23.904H147.031ZM230.167 89.312L232.288 91.4333L233.167 90.5546V89.312H230.167ZM224.919 92L224.166 89.096L224.101 89.1129L224.037 89.1327L224.919 92ZM207.895 91.616L208.844 88.77L208.844 88.7699L207.895 91.616ZM200.983 84.832L198.289 86.1523L198.294 86.163L198.3 86.1736L200.983 84.832ZM188.311 58.976L185.611 60.2827L185.614 60.2895L185.617 60.2963L188.311 58.976ZM184.855 51.552L182.098 52.7338L182.105 52.7521L182.114 52.7704L184.855 51.552ZM181.527 43.36L184.323 42.2727L183.439 39.9999L181.034 40.4008L181.527 43.36ZM180.759 43.488L180.266 40.5288L177.565 40.979L177.767 43.7096L180.759 43.488ZM181.271 57.568H178.271V57.5948L178.271 57.6216L181.271 57.568ZM181.399 91.488L182.188 94.3823L184.399 93.7794V91.488H181.399ZM177.047 92.256L176.659 89.2812L176.65 89.2823L176.642 89.2835L177.047 92.256ZM166.423 92.256L166.944 89.3016L166.423 92.256ZM162.839 90.72L164.739 88.3981L162.839 90.72ZM160.663 87.648L157.854 88.7014L157.865 88.7319L157.878 88.7622L160.663 87.648ZM159.895 18.4L157.437 16.6796L156.895 17.4543V18.4H159.895ZM165.399 14.56L164.421 11.7239L164.421 11.7239L165.399 14.56ZM182.295 14.816L181.27 17.6354L181.32 17.6538L181.372 17.6703L182.295 14.816ZM189.207 21.472L186.511 22.7873L186.515 22.7951L186.518 22.803L189.207 21.472ZM202.007 47.328L204.707 46.0213L204.702 46.0091L204.696 45.997L202.007 47.328ZM205.463 54.88L202.706 56.0618L202.713 56.0801L202.722 56.0984L205.463 54.88ZM208.791 62.944L205.995 64.0313L206.908 66.3799L209.379 65.8857L208.791 62.944ZM209.431 62.816L210.019 65.7577L212.619 65.2379L212.423 62.5944L209.431 62.816ZM208.791 48.992L211.79 48.9365L211.79 48.9364L208.791 48.992ZM208.663 14.432L207.874 11.5377L205.663 12.1406V14.432H208.663ZM212.887 13.664L212.499 10.6892L212.49 10.6903L212.482 10.6915L212.887 13.664ZM227.223 15.328L225.51 17.7907L225.547 17.8163L225.584 17.8408L227.223 15.328ZM228.046 87.1907C227.353 87.8833 226.153 88.5808 224.166 89.096L225.672 94.904C228.293 94.2245 230.592 93.1301 232.288 91.4333L228.046 87.1907ZM224.037 89.1327C222.186 89.7022 219.813 90.024 216.855 90.024V96.024C220.212 96.024 223.215 95.6632 225.801 94.8673L224.037 89.1327ZM216.855 90.024C214 90.024 211.335 89.6003 208.844 88.77L206.946 94.462C210.087 95.509 213.396 96.024 216.855 96.024V90.024ZM208.844 88.7699C207.017 88.1609 205.231 86.6188 203.666 83.4904L198.3 86.1736C200.319 90.2132 203.141 93.1938 206.946 94.4621L208.844 88.7699ZM203.677 83.5117L191.005 57.6557L185.617 60.2963L198.289 86.1523L203.677 83.5117ZM191.011 57.6693C189.743 55.0485 188.605 52.6036 187.596 50.3336L182.114 52.7704C183.153 55.1084 184.319 57.6128 185.611 60.2827L191.011 57.6693ZM187.612 50.3702C186.605 48.0191 185.508 45.3209 184.323 42.2727L178.731 44.4473C179.935 47.5431 181.057 50.3062 182.098 52.7338L187.612 50.3702ZM181.034 40.4008L180.266 40.5288L181.252 46.4472L182.02 46.3192L181.034 40.4008ZM177.767 43.7096C178.103 48.2414 178.271 52.8608 178.271 57.568H184.271C184.271 52.7179 184.098 47.9506 183.751 43.2664L177.767 43.7096ZM178.271 57.6216C178.357 62.383 178.399 67.0585 178.399 71.648H184.399C184.399 67.0215 184.356 62.3103 184.271 57.5144L178.271 57.6216ZM178.399 71.648V91.488H184.399V71.648H178.399ZM180.61 88.5937C179.878 88.7934 178.595 89.0287 176.659 89.2812L177.435 95.2308C179.425 94.9713 181.043 94.6946 182.188 94.3823L180.61 88.5937ZM176.642 89.2835C174.897 89.5214 173.156 89.64 171.415 89.64V95.64C173.429 95.64 175.442 95.5026 177.452 95.2285L176.642 89.2835ZM171.415 89.64C169.667 89.64 168.184 89.5203 166.944 89.3016L165.902 95.2104C167.564 95.5037 169.408 95.64 171.415 95.64V89.64ZM166.944 89.3016C165.892 89.1159 165.203 88.7777 164.739 88.3981L160.939 93.0419C162.353 94.1983 164.053 94.8841 165.902 95.2104L166.944 89.3016ZM164.739 88.3981C164.244 87.9931 163.798 87.4081 163.448 86.5338L157.878 88.7622C158.552 90.4479 159.557 91.9109 160.939 93.0419L164.739 88.3981ZM163.472 86.5946C163.13 85.6836 162.895 84.3251 162.895 82.4H156.895C156.895 84.7416 157.172 86.8817 157.854 88.7014L163.472 86.5946ZM162.895 82.4V18.4H156.895V82.4H162.895ZM162.353 20.1204C163.1 19.0524 164.346 18.0965 166.377 17.3961L164.421 11.7239C161.503 12.7302 159.079 14.3343 157.437 16.6796L162.353 20.1204ZM166.377 17.3961C168.514 16.6592 170.827 16.28 173.335 16.28V10.28C170.211 10.28 167.233 10.7541 164.421 11.7239L166.377 17.3961ZM173.335 16.28C176.162 16.28 178.8 16.7372 181.27 17.6354L183.32 11.9966C180.158 10.8468 176.823 10.28 173.335 10.28V16.28ZM181.372 17.6703C183.297 18.2933 185.057 19.8074 186.511 22.7873L191.903 20.1567C189.944 16.1393 187.096 13.216 183.218 11.9617L181.372 17.6703ZM186.518 22.803L199.318 48.659L204.696 45.997L191.896 20.141L186.518 22.803ZM199.307 48.6347C200.569 51.244 201.702 53.7195 202.706 56.0618L208.22 53.6982C207.176 51.2618 206.005 48.7026 204.707 46.0213L199.307 48.6347ZM202.722 56.0984C203.722 58.3484 204.813 60.9909 205.995 64.0313L211.587 61.8567C210.38 58.7531 209.252 56.0196 208.204 53.6616L202.722 56.0984ZM209.379 65.8857L210.019 65.7577L208.843 59.8743L208.203 60.0023L209.379 65.8857ZM212.423 62.5944C212.086 58.0415 211.875 53.4889 211.79 48.9365L205.792 49.0475C205.878 53.7111 206.094 58.3745 206.439 63.0376L212.423 62.5944ZM211.79 48.9364C211.705 44.347 211.663 39.7575 211.663 35.168H205.663C205.663 39.7945 205.706 44.421 205.792 49.0475L211.79 48.9364ZM211.663 35.168V14.432H205.663V35.168H211.663ZM209.452 17.3263C210.197 17.1233 211.448 16.888 213.292 16.6365L212.482 10.6915C210.572 10.952 209.007 11.2287 207.874 11.5377L209.452 17.3263ZM213.275 16.6388C215.116 16.3987 216.906 16.28 218.647 16.28V10.28C216.633 10.28 214.583 10.4173 212.499 10.6892L213.275 16.6388ZM218.647 16.28C222.112 16.28 224.262 16.923 225.51 17.7907L228.936 12.8653C226.258 11.0024 222.691 10.28 218.647 10.28V16.28ZM225.584 17.8408C226.203 18.2446 227.167 19.57 227.167 23.52H233.167C233.167 19.1073 232.168 14.9714 228.862 12.8152L225.584 17.8408ZM227.167 23.52V89.312H233.167V23.52H227.167ZM236.786 32.352L234.255 33.9626L235.139 35.352H236.786V32.352ZM235.122 28.512L232.261 29.4154L232.261 29.4154L235.122 28.512ZM236.53 16.224L234.47 14.043L234.439 14.0724L234.409 14.1027L236.53 16.224ZM298.226 14.048L300.757 12.4374L299.873 11.048H298.226V14.048ZM299.89 17.888L302.751 16.9846L302.751 16.9846L299.89 17.888ZM298.354 30.176L296.294 27.995L296.263 28.0244L296.233 28.0547L298.354 30.176ZM278.386 32.352V29.352H275.386V32.352H278.386ZM278.386 91.488L279.175 94.3823L281.386 93.7794V91.488H278.386ZM273.906 92.256L273.534 89.2792L273.526 89.2802L273.518 89.2812L273.906 92.256ZM262.77 92.128L263.421 89.1994L263.356 89.1851L263.291 89.1736L262.77 92.128ZM259.058 90.592L260.858 88.192L259.058 90.592ZM256.754 87.392L253.945 88.4454L253.945 88.4454L256.754 87.392ZM255.986 32.352H258.986V29.352H255.986V32.352ZM239.317 30.7414C238.913 30.1066 238.453 29.0972 237.983 27.6086L232.261 29.4154C232.815 31.1694 233.464 32.7201 234.255 33.9626L239.317 30.7414ZM237.983 27.6086C237.568 26.2949 237.354 24.8941 237.354 23.392H231.354C231.354 25.4739 231.652 27.4864 232.261 29.4154L237.983 27.6086ZM237.354 23.392C237.354 20.386 238.027 18.9694 238.651 18.3453L234.409 14.1027C232.131 16.38 231.354 19.742 231.354 23.392H237.354ZM238.59 18.405C239.495 17.5503 240.686 17.048 242.418 17.048V11.048C239.371 11.048 236.637 11.9964 234.47 14.043L238.59 18.405ZM242.418 17.048H298.226V11.048H242.418V17.048ZM295.695 15.6586C296.099 16.2934 296.559 17.3028 297.029 18.7914L302.751 16.9846C302.197 15.2306 301.548 13.6799 300.757 12.4374L295.695 15.6586ZM297.029 18.7914C297.444 20.105 297.658 21.5059 297.658 23.008H303.658C303.658 20.9261 303.36 18.9136 302.751 16.9846L297.029 18.7914ZM297.658 23.008C297.658 25.9746 296.96 27.3657 296.294 27.995L300.414 32.357C302.82 30.085 303.658 26.6974 303.658 23.008H297.658ZM296.233 28.0547C295.437 28.85 294.329 29.352 292.594 29.352V35.352C295.637 35.352 298.369 34.4033 300.475 32.2973L296.233 28.0547ZM292.594 29.352H278.386V35.352H292.594V29.352ZM275.386 32.352V91.488H281.386V32.352H275.386ZM277.597 88.5937C276.876 88.7903 275.561 89.0258 273.534 89.2792L274.278 95.2328C276.347 94.9742 278.019 94.6977 279.175 94.3823L277.597 88.5937ZM273.518 89.2812C271.683 89.5206 269.85 89.64 268.018 89.64V95.64C270.112 95.64 272.204 95.5034 274.294 95.2308L273.518 89.2812ZM268.018 89.64C266.223 89.64 264.698 89.4833 263.421 89.1994L262.119 95.0566C263.914 95.4553 265.888 95.64 268.018 95.64V89.64ZM263.291 89.1736C262.234 88.9871 261.452 88.6375 260.858 88.192L257.258 92.992C258.712 94.0825 260.404 94.7569 262.249 95.0824L263.291 89.1736ZM260.858 88.192C260.353 87.8134 259.903 87.2446 259.563 86.3386L253.945 88.4454C254.629 90.2701 255.715 91.8346 257.258 92.992L260.858 88.192ZM259.563 86.3386C259.225 85.438 258.986 84.043 258.986 82.016H252.986C252.986 84.4263 253.259 86.6153 253.945 88.4454L259.563 86.3386ZM258.986 82.016V32.352H252.986V82.016H258.986ZM255.986 29.352H236.786V35.352H255.986V29.352Z" fill="white"/>
<path d="M441.848 14.432C442.445 15.3707 442.957 16.6507 443.384 18.272C443.896 19.808 444.152 21.4293 444.152 23.136C444.152 26.464 443.427 28.8533 441.976 30.304C440.611 31.6693 438.733 32.352 436.344 32.352H409.464V46.816H437.496C438.179 47.7547 438.733 48.992 439.16 50.528C439.672 52.064 439.928 53.6853 439.928 55.392C439.928 58.6347 439.203 60.9813 437.752 62.432C436.387 63.7973 434.509 64.48 432.12 64.48H409.72V91.488C408.781 91.744 407.288 92 405.24 92.256C403.277 92.512 401.315 92.64 399.352 92.64C397.389 92.64 395.64 92.4693 394.104 92.128C392.653 91.872 391.416 91.36 390.392 90.592C389.368 89.824 388.6 88.7573 388.088 87.392C387.576 86.0267 387.32 84.2347 387.32 82.016V26.336C387.32 22.6667 388.387 19.7653 390.52 17.632C392.653 15.4987 395.555 14.432 399.224 14.432H441.848ZM448.92 26.336C448.92 22.6667 449.987 19.7653 452.12 17.632C454.253 15.4987 457.155 14.432 460.824 14.432H503.064C503.661 15.3707 504.173 16.608 504.6 18.144C505.112 19.68 505.368 21.3013 505.368 23.008C505.368 26.2507 504.643 28.5547 503.192 29.92C501.827 31.2853 499.992 31.968 497.688 31.968H470.68V43.872H499.48C500.077 44.8107 500.589 46.048 501.016 47.584C501.528 49.0347 501.784 50.6133 501.784 52.32C501.784 55.5627 501.101 57.8667 499.736 59.232C498.371 60.5973 496.536 61.28 494.232 61.28H470.68V74.72H503.576C504.173 75.6587 504.685 76.896 505.112 78.432C505.624 79.968 505.88 81.5893 505.88 83.296C505.88 86.5387 505.155 88.8853 503.704 90.336C502.339 91.7013 500.504 92.384 498.2 92.384H460.824C457.155 92.384 454.253 91.3173 452.12 89.184C449.987 87.0507 448.92 84.1493 448.92 80.48V26.336ZM534.917 66.912V91.488C533.978 91.744 532.485 92 530.437 92.256C528.474 92.512 526.512 92.64 524.549 92.64C522.586 92.64 520.837 92.4693 519.301 92.128C517.85 91.872 516.613 91.36 515.589 90.592C514.65 89.824 513.925 88.7573 513.413 87.392C512.901 86.0267 512.645 84.2347 512.645 82.016V21.728C512.645 19.936 513.114 18.5707 514.053 17.632C515.077 16.608 516.442 15.7973 518.149 15.2C521.05 14.176 524.421 13.4507 528.261 13.024C532.101 12.512 536.197 12.256 540.549 12.256C552.325 12.256 561.2 14.7307 567.173 19.68C573.146 24.6293 576.133 31.328 576.133 39.776C576.133 45.0667 574.768 49.5893 572.037 53.344C569.306 57.0987 566.064 60 562.309 62.048C565.381 66.2293 568.41 70.1547 571.397 73.824C574.384 77.4933 576.73 80.8213 578.437 83.808C577.584 86.7947 576.005 89.0987 573.701 90.72C571.482 92.256 568.965 93.024 566.149 93.024C564.272 93.024 562.65 92.8107 561.285 92.384C559.92 91.9573 558.725 91.36 557.701 90.592C556.677 89.824 555.738 88.8853 554.885 87.776C554.032 86.6667 553.221 85.472 552.453 84.192L541.701 66.912H534.917ZM542.981 49.888C546.224 49.888 548.784 49.0773 550.661 47.456C552.538 45.7493 553.477 43.2747 553.477 40.032C553.477 36.7893 552.41 34.3573 550.277 32.736C548.229 31.0293 544.944 30.176 540.421 30.176C539.141 30.176 538.117 30.2187 537.349 30.304C536.581 30.3893 535.728 30.5173 534.789 30.688V49.888H542.981ZM578.786 32.352C578.189 31.4133 577.634 30.1333 577.122 28.512C576.61 26.8907 576.354 25.184 576.354 23.392C576.354 20.064 577.079 17.6747 578.53 16.224C580.066 14.7733 582.029 14.048 584.418 14.048H640.226C640.823 14.9867 641.378 16.2667 641.89 17.888C642.402 19.5093 642.658 21.216 642.658 23.008C642.658 26.336 641.89 28.7253 640.354 30.176C638.903 31.6267 636.983 32.352 634.594 32.352H620.386V91.488C619.447 91.744 617.954 92 615.906 92.256C613.943 92.512 611.981 92.64 610.018 92.64C608.055 92.64 606.306 92.4693 604.77 92.128C603.319 91.872 602.082 91.36 601.058 90.592C600.034 89.824 599.266 88.7573 598.754 87.392C598.242 86.0267 597.986 84.2347 597.986 82.016V32.352H578.786ZM658.482 16.736C659.933 15.8827 662.109 15.072 665.01 14.304C667.997 13.536 670.983 13.152 673.97 13.152C678.237 13.152 681.991 13.792 685.234 15.072C688.562 16.2667 690.695 18.1867 691.634 20.832C693.17 25.2693 694.834 30.432 696.626 36.32C698.418 42.208 700.21 48.3093 702.002 54.624C703.794 60.8533 705.543 67.04 707.25 73.184C708.957 79.2427 710.45 84.6187 711.73 89.312C710.706 90.5067 709.17 91.4453 707.122 92.128C705.074 92.896 702.642 93.28 699.826 93.28C697.778 93.28 696.029 93.1093 694.578 92.768C693.213 92.4267 692.061 91.9147 691.122 91.232C690.269 90.5493 689.543 89.6533 688.946 88.544C688.434 87.4347 687.965 86.1547 687.538 84.704L685.234 75.872H662.066C661.383 78.432 660.701 81.0773 660.018 83.808C659.335 86.5387 658.653 89.184 657.97 91.744C656.775 92.1707 655.495 92.512 654.13 92.768C652.85 93.1093 651.271 93.28 649.394 93.28C645.042 93.28 641.799 92.5547 639.666 91.104C637.618 89.568 636.594 87.4773 636.594 84.832C636.594 83.6373 636.765 82.4427 637.106 81.248C637.447 80.0533 637.831 78.6453 638.258 77.024C638.855 74.72 639.666 71.8613 640.69 68.448C641.799 65.0347 642.994 61.3653 644.274 57.44C645.554 53.4293 646.919 49.3333 648.37 45.152C649.821 40.9707 651.186 37.0453 652.466 33.376C653.746 29.6213 654.898 26.2933 655.922 23.392C657.031 20.4907 657.885 18.272 658.482 16.736ZM673.842 33.248C672.647 36.832 671.282 40.8427 669.746 45.28C668.295 49.632 666.973 54.0693 665.778 58.592H681.65C680.455 53.984 679.218 49.504 677.938 45.152C676.743 40.7147 675.634 36.7467 674.61 33.248H673.842Z" fill="#FF7A7A"/>
<path d="M441.848 14.432L444.379 12.8214L443.495 11.432H441.848V14.432ZM443.384 18.272L440.483 19.0355L440.507 19.129L440.538 19.2207L443.384 18.272ZM441.976 30.304L444.097 32.4253L441.976 30.304ZM409.464 32.352V29.352H406.464V32.352H409.464ZM409.464 46.816H406.464V49.816H409.464V46.816ZM437.496 46.816L439.922 45.0515L439.024 43.816H437.496V46.816ZM439.16 50.528L436.269 51.3309L436.29 51.4044L436.314 51.4767L439.16 50.528ZM437.752 62.432L439.873 64.5533L439.873 64.5533L437.752 62.432ZM409.72 64.48V61.48H406.72V64.48H409.72ZM409.72 91.488L410.509 94.3823L412.72 93.7794V91.488H409.72ZM405.24 92.256L404.868 89.2792L404.86 89.2802L404.852 89.2812L405.24 92.256ZM394.104 92.128L394.755 89.1994L394.69 89.1851L394.625 89.1736L394.104 92.128ZM390.392 90.592L388.592 92.992L388.592 92.992L390.392 90.592ZM388.088 87.392L385.279 88.4454L385.279 88.4454L388.088 87.392ZM439.317 16.0426C439.686 16.623 440.099 17.5781 440.483 19.0355L446.285 17.5085C445.815 15.7232 445.204 14.1184 444.379 12.8214L439.317 16.0426ZM440.538 19.2207C440.943 20.4346 441.152 21.7342 441.152 23.136H447.152C447.152 21.1244 446.849 19.1814 446.23 17.3233L440.538 19.2207ZM441.152 23.136C441.152 26.142 440.479 27.5586 439.855 28.1827L444.097 32.4253C446.375 30.148 447.152 26.786 447.152 23.136H441.152ZM439.855 28.1827C439.179 28.8581 438.138 29.352 436.344 29.352V35.352C439.329 35.352 442.042 34.4806 444.097 32.4253L439.855 28.1827ZM436.344 29.352H409.464V35.352H436.344V29.352ZM406.464 32.352V46.816H412.464V32.352H406.464ZM409.464 49.816H437.496V43.816H409.464V49.816ZM435.07 48.5805C435.479 49.1428 435.905 50.0205 436.269 51.3309L442.051 49.7251C441.561 47.9635 440.879 46.3665 439.922 45.0515L435.07 48.5805ZM436.314 51.4767C436.719 52.6906 436.928 53.9902 436.928 55.392H442.928C442.928 53.3804 442.625 51.4374 442.006 49.5793L436.314 51.4767ZM436.928 55.392C436.928 58.2858 436.267 59.6748 435.631 60.3107L439.873 64.5533C442.139 62.2879 442.928 58.9835 442.928 55.392H436.928ZM435.631 60.3107C434.955 60.9861 433.914 61.48 432.12 61.48V67.48C435.105 67.48 437.818 66.6086 439.873 64.5533L435.631 60.3107ZM432.12 61.48H409.72V67.48H432.12V61.48ZM406.72 64.48V91.488H412.72V64.48H406.72ZM408.931 88.5937C408.21 88.7903 406.895 89.0258 404.868 89.2792L405.612 95.2328C407.681 94.9742 409.353 94.6977 410.509 94.3823L408.931 88.5937ZM404.852 89.2812C403.017 89.5206 401.184 89.64 399.352 89.64V95.64C401.446 95.64 403.538 95.5034 405.628 95.2308L404.852 89.2812ZM399.352 89.64C397.557 89.64 396.032 89.4833 394.755 89.1994L393.453 95.0566C395.248 95.4553 397.222 95.64 399.352 95.64V89.64ZM394.625 89.1736C393.568 88.9871 392.786 88.6375 392.192 88.192L388.592 92.992C390.046 94.0825 391.738 94.7569 393.583 95.0824L394.625 89.1736ZM392.192 88.192C391.687 87.8134 391.237 87.2446 390.897 86.3386L385.279 88.4454C385.963 90.2701 387.049 91.8346 388.592 92.992L392.192 88.192ZM390.897 86.3386C390.559 85.438 390.32 84.043 390.32 82.016H384.32C384.32 84.4263 384.593 86.6153 385.279 88.4454L390.897 86.3386ZM390.32 82.016V26.336H384.32V82.016H390.32ZM390.32 26.336C390.32 23.279 391.188 21.2064 392.641 19.7533L388.399 15.5107C385.585 18.3242 384.32 22.0544 384.32 26.336H390.32ZM392.641 19.7533C394.094 18.3002 396.167 17.432 399.224 17.432V11.432C394.942 11.432 391.212 12.6971 388.399 15.5107L392.641 19.7533ZM399.224 17.432H441.848V11.432H399.224V17.432ZM503.064 14.432L505.595 12.8214L504.711 11.432H503.064V14.432ZM504.6 18.144L501.709 18.9469L501.73 19.0204L501.754 19.0927L504.6 18.144ZM503.192 29.92L501.136 27.7354L501.103 27.7665L501.071 27.7987L503.192 29.92ZM470.68 31.968V28.968H467.68V31.968H470.68ZM470.68 43.872H467.68V46.872H470.68V43.872ZM499.48 43.872L502.011 42.2614L501.127 40.872H499.48V43.872ZM501.016 47.584L498.125 48.3869L498.153 48.4857L498.187 48.5825L501.016 47.584ZM470.68 61.28V58.28H467.68V61.28H470.68ZM470.68 74.72H467.68V77.72H470.68V74.72ZM503.576 74.72L506.107 73.1094L505.223 71.72H503.576V74.72ZM505.112 78.432L502.221 79.2349L502.242 79.3084L502.266 79.3807L505.112 78.432ZM503.704 90.336L501.583 88.2147L501.583 88.2147L503.704 90.336ZM452.12 89.184L454.241 87.0627L454.241 87.0627L452.12 89.184ZM451.92 26.336C451.92 23.279 452.788 21.2064 454.241 19.7533L449.999 15.5107C447.185 18.3242 445.92 22.0544 445.92 26.336H451.92ZM454.241 19.7533C455.694 18.3002 457.767 17.432 460.824 17.432V11.432C456.542 11.432 452.812 12.6971 449.999 15.5107L454.241 19.7533ZM460.824 17.432H503.064V11.432H460.824V17.432ZM500.533 16.0426C500.919 16.6489 501.331 17.584 501.709 18.9469L507.491 17.3411C507.016 15.632 506.404 14.0924 505.595 12.8214L500.533 16.0426ZM501.754 19.0927C502.159 20.3066 502.368 21.6062 502.368 23.008H508.368C508.368 20.9964 508.065 19.0534 507.446 17.1953L501.754 19.0927ZM502.368 23.008C502.368 25.9242 501.697 27.2071 501.136 27.7354L505.248 32.1046C507.588 29.9022 508.368 26.5772 508.368 23.008H502.368ZM501.071 27.7987C500.375 28.4947 499.361 28.968 497.688 28.968V34.968C500.623 34.968 503.279 34.076 505.313 32.0413L501.071 27.7987ZM497.688 28.968H470.68V34.968H497.688V28.968ZM467.68 31.968V43.872H473.68V31.968H467.68ZM470.68 46.872H499.48V40.872H470.68V46.872ZM496.949 45.4826C497.335 46.0889 497.747 47.024 498.125 48.3869L503.907 46.7811C503.432 45.072 502.82 43.5324 502.011 42.2614L496.949 45.4826ZM498.187 48.5825C498.574 49.6793 498.784 50.9165 498.784 52.32H504.784C504.784 50.3102 504.482 48.39 503.845 46.5855L498.187 48.5825ZM498.784 52.32C498.784 55.2764 498.138 56.5873 497.615 57.1107L501.857 61.3533C504.065 59.146 504.784 55.8489 504.784 52.32H498.784ZM497.615 57.1107C496.919 57.8067 495.905 58.28 494.232 58.28V64.28C497.167 64.28 499.823 63.388 501.857 61.3533L497.615 57.1107ZM494.232 58.28H470.68V64.28H494.232V58.28ZM467.68 61.28V74.72H473.68V61.28H467.68ZM470.68 77.72H503.576V71.72H470.68V77.72ZM501.045 76.3306C501.431 76.9369 501.843 77.872 502.221 79.2349L508.003 77.6291C507.528 75.92 506.916 74.3804 506.107 73.1094L501.045 76.3306ZM502.266 79.3807C502.671 80.5946 502.88 81.8942 502.88 83.296H508.88C508.88 81.2844 508.577 79.3414 507.958 77.4833L502.266 79.3807ZM502.88 83.296C502.88 86.1898 502.219 87.5788 501.583 88.2147L505.825 92.4573C508.091 90.1919 508.88 86.8875 508.88 83.296H502.88ZM501.583 88.2147C500.887 88.9107 499.873 89.384 498.2 89.384V95.384C501.135 95.384 503.791 94.492 505.825 92.4573L501.583 88.2147ZM498.2 89.384H460.824V95.384H498.2V89.384ZM460.824 89.384C457.767 89.384 455.694 88.5158 454.241 87.0627L449.999 91.3053C452.812 94.1189 456.542 95.384 460.824 95.384V89.384ZM454.241 87.0627C452.788 85.6095 451.92 83.537 451.92 80.48H445.92C445.92 84.7616 447.185 88.4918 449.999 91.3053L454.241 87.0627ZM451.92 80.48V26.336H445.92V80.48H451.92ZM534.917 66.912V63.912H531.917V66.912H534.917ZM534.917 91.488L535.706 94.3823L537.917 93.7794V91.488H534.917ZM530.437 92.256L530.065 89.2792L530.057 89.2802L530.049 89.2812L530.437 92.256ZM519.301 92.128L519.952 89.1994L519.887 89.1851L519.822 89.1736L519.301 92.128ZM515.589 90.592L513.689 92.9139L513.738 92.954L513.789 92.992L515.589 90.592ZM513.413 87.392L510.604 88.4454L510.604 88.4454L513.413 87.392ZM514.053 17.632L516.174 19.7533L516.174 19.7533L514.053 17.632ZM518.149 15.2L519.14 18.0316L519.147 18.029L518.149 15.2ZM528.261 13.024L528.592 16.0056L528.625 16.002L528.657 15.9977L528.261 13.024ZM567.173 19.68L565.259 21.9901L565.259 21.9901L567.173 19.68ZM572.037 53.344L574.463 55.1085L574.463 55.1085L572.037 53.344ZM562.309 62.048L560.872 59.4143L557.859 61.058L559.891 63.8242L562.309 62.048ZM571.397 73.824L573.724 71.9302L573.724 71.9302L571.397 73.824ZM578.437 83.808L581.322 84.6322L581.669 83.4169L581.042 82.3196L578.437 83.808ZM573.701 90.72L575.409 93.1866L575.418 93.18L575.427 93.1734L573.701 90.72ZM561.285 92.384L562.18 89.5206L561.285 92.384ZM557.701 90.592L559.501 88.192L559.501 88.192L557.701 90.592ZM554.885 87.776L552.507 89.6051L552.507 89.6051L554.885 87.776ZM552.453 84.192L555.025 82.6485L555.013 82.6277L555 82.6071L552.453 84.192ZM541.701 66.912L544.248 65.3271L543.368 63.912H541.701V66.912ZM550.661 47.456L552.622 49.7265L552.651 49.7015L552.679 49.6758L550.661 47.456ZM550.277 32.736L548.356 35.0407L548.408 35.0838L548.462 35.1245L550.277 32.736ZM534.789 30.688L534.252 27.7364L531.789 28.1843V30.688H534.789ZM534.789 49.888H531.789V52.888H534.789V49.888ZM531.917 66.912V91.488H537.917V66.912H531.917ZM534.128 88.5937C533.407 88.7903 532.092 89.0258 530.065 89.2792L530.809 95.2328C532.878 94.9742 534.55 94.6977 535.706 94.3823L534.128 88.5937ZM530.049 89.2812C528.214 89.5206 526.381 89.64 524.549 89.64V95.64C526.643 95.64 528.735 95.5034 530.825 95.2308L530.049 89.2812ZM524.549 89.64C522.754 89.64 521.229 89.4833 519.952 89.1994L518.65 95.0566C520.445 95.4553 522.419 95.64 524.549 95.64V89.64ZM519.822 89.1736C518.765 88.9871 517.983 88.6375 517.389 88.192L513.789 92.992C515.243 94.0825 516.935 94.7569 518.78 95.0824L519.822 89.1736ZM517.489 88.2701C517.035 87.8993 516.586 87.3087 516.222 86.3386L510.604 88.4454C511.264 90.206 512.265 91.7487 513.689 92.9139L517.489 88.2701ZM516.222 86.3386C515.884 85.438 515.645 84.043 515.645 82.016H509.645C509.645 84.4263 509.918 86.6153 510.604 88.4454L516.222 86.3386ZM515.645 82.016V21.728H509.645V82.016H515.645ZM515.645 21.728C515.645 20.4453 515.973 19.9549 516.174 19.7533L511.932 15.5107C510.256 17.1864 509.645 19.4267 509.645 21.728H515.645ZM516.174 19.7533C516.811 19.1171 517.756 18.5161 519.14 18.0316L517.158 12.3684C515.129 13.0785 513.343 14.0989 511.932 15.5107L516.174 19.7533ZM519.147 18.029C521.786 17.0976 524.925 16.4132 528.592 16.0056L527.93 10.0423C523.917 10.4882 520.314 11.2544 517.151 12.371L519.147 18.029ZM528.657 15.9977C532.351 15.5052 536.314 15.256 540.549 15.256V9.256C536.08 9.256 531.851 9.5188 527.865 10.0503L528.657 15.9977ZM540.549 15.256C551.973 15.256 560.041 17.6667 565.259 21.9901L569.087 17.3699C562.358 11.7947 552.677 9.256 540.549 9.256V15.256ZM565.259 21.9901C570.478 26.3142 573.133 32.1309 573.133 39.776H579.133C579.133 30.5251 575.815 22.9445 569.087 17.3699L565.259 21.9901ZM573.133 39.776C573.133 44.5248 571.918 48.4074 569.611 51.5795L574.463 55.1085C577.618 50.7713 579.133 45.6086 579.133 39.776H573.133ZM569.611 51.5795C567.119 55.0059 564.204 57.5969 560.872 59.4143L563.746 64.6817C567.923 62.4031 571.494 59.1914 574.463 55.1085L569.611 51.5795ZM559.891 63.8242C562.99 68.0417 566.05 72.0066 569.07 75.7178L573.724 71.9302C570.771 68.3028 567.772 64.4169 564.727 60.2718L559.891 63.8242ZM569.07 75.7178C571.989 79.3035 574.231 82.494 575.832 85.2964L581.042 82.3196C579.23 79.1487 576.778 75.6832 573.724 71.9302L569.07 75.7178ZM575.552 82.9838C574.867 85.383 573.659 87.081 571.975 88.2666L575.427 93.1734C578.351 91.1163 580.3 88.2063 581.322 84.6322L575.552 82.9838ZM571.993 88.2534C570.299 89.4264 568.383 90.024 566.149 90.024V96.024C569.547 96.024 572.666 95.0856 575.409 93.1866L571.993 88.2534ZM566.149 90.024C564.486 90.024 563.181 89.8335 562.18 89.5206L560.39 95.2474C562.119 95.7878 564.057 96.024 566.149 96.024V90.024ZM562.18 89.5206C561.102 89.1839 560.222 88.7325 559.501 88.192L555.901 92.992C557.228 93.9875 558.737 94.7308 560.39 95.2474L562.18 89.5206ZM559.501 88.192C558.714 87.6017 557.966 86.8605 557.263 85.9469L552.507 89.6051C553.511 90.9101 554.64 92.0463 555.901 92.992L559.501 88.192ZM557.263 85.9469C556.484 84.9347 555.738 83.8361 555.025 82.6485L549.881 85.7355C550.704 87.1079 551.579 88.3986 552.507 89.6051L557.263 85.9469ZM555 82.6071L544.248 65.3271L539.154 68.4969L549.906 85.7769L555 82.6071ZM541.701 63.912H534.917V69.912H541.701V63.912ZM542.981 52.888C546.718 52.888 550.05 51.9472 552.622 49.7265L548.7 45.1855C547.517 46.2074 545.729 46.888 542.981 46.888V52.888ZM552.679 49.6758C555.346 47.2516 556.477 43.8697 556.477 40.032H550.477C550.477 42.6797 549.731 44.247 548.643 45.2362L552.679 49.6758ZM556.477 40.032C556.477 36.0721 555.132 32.6574 552.092 30.3475L548.462 35.1245C549.689 36.0573 550.477 37.5065 550.477 40.032H556.477ZM552.198 30.4313C549.345 28.0545 545.198 27.176 540.421 27.176V33.176C544.689 33.176 547.113 34.0042 548.356 35.0407L552.198 30.4313ZM540.421 27.176C539.092 27.176 537.943 27.2195 537.018 27.3223L537.68 33.2856C538.291 33.2178 539.19 33.176 540.421 33.176V27.176ZM537.018 27.3223C536.167 27.4168 535.244 27.5561 534.252 27.7364L535.326 33.6396C536.211 33.4786 536.995 33.3618 537.68 33.2856L537.018 27.3223ZM531.789 30.688V49.888H537.789V30.688H531.789ZM534.789 52.888H542.981V46.888H534.789V52.888ZM578.786 32.352L576.255 33.9626L577.139 35.352H578.786V32.352ZM577.122 28.512L574.261 29.4154L574.261 29.4154L577.122 28.512ZM578.53 16.224L576.47 14.043L576.439 14.0724L576.409 14.1027L578.53 16.224ZM640.226 14.048L642.757 12.4374L641.873 11.048H640.226V14.048ZM641.89 17.888L644.751 16.9846L644.751 16.9846L641.89 17.888ZM640.354 30.176L638.294 27.995L638.263 28.0244L638.233 28.0547L640.354 30.176ZM620.386 32.352V29.352H617.386V32.352H620.386ZM620.386 91.488L621.175 94.3823L623.386 93.7794V91.488H620.386ZM615.906 92.256L615.534 89.2792L615.526 89.2802L615.518 89.2812L615.906 92.256ZM604.77 92.128L605.421 89.1994L605.356 89.1851L605.291 89.1736L604.77 92.128ZM601.058 90.592L602.858 88.192L601.058 90.592ZM598.754 87.392L595.945 88.4454L595.945 88.4454L598.754 87.392ZM597.986 32.352H600.986V29.352H597.986V32.352ZM581.317 30.7414C580.913 30.1066 580.453 29.0972 579.983 27.6086L574.261 29.4154C574.815 31.1694 575.464 32.7201 576.255 33.9626L581.317 30.7414ZM579.983 27.6086C579.568 26.2949 579.354 24.8941 579.354 23.392H573.354C573.354 25.4739 573.652 27.4864 574.261 29.4154L579.983 27.6086ZM579.354 23.392C579.354 20.386 580.027 18.9694 580.651 18.3453L576.409 14.1027C574.131 16.38 573.354 19.742 573.354 23.392H579.354ZM580.59 18.405C581.495 17.5503 582.686 17.048 584.418 17.048V11.048C581.371 11.048 578.637 11.9964 576.47 14.043L580.59 18.405ZM584.418 17.048H640.226V11.048H584.418V17.048ZM637.695 15.6586C638.099 16.2934 638.559 17.3028 639.029 18.7914L644.751 16.9846C644.197 15.2306 643.548 13.6799 642.757 12.4374L637.695 15.6586ZM639.029 18.7914C639.444 20.105 639.658 21.5059 639.658 23.008H645.658C645.658 20.9261 645.36 18.9136 644.751 16.9846L639.029 18.7914ZM639.658 23.008C639.658 25.9746 638.96 27.3657 638.294 27.995L642.414 32.357C644.82 30.085 645.658 26.6974 645.658 23.008H639.658ZM638.233 28.0547C637.437 28.85 636.329 29.352 634.594 29.352V35.352C637.637 35.352 640.369 34.4033 642.475 32.2973L638.233 28.0547ZM634.594 29.352H620.386V35.352H634.594V29.352ZM617.386 32.352V91.488H623.386V32.352H617.386ZM619.597 88.5937C618.876 88.7903 617.561 89.0258 615.534 89.2792L616.278 95.2328C618.347 94.9742 620.019 94.6977 621.175 94.3823L619.597 88.5937ZM615.518 89.2812C613.683 89.5206 611.85 89.64 610.018 89.64V95.64C612.112 95.64 614.204 95.5034 616.294 95.2308L615.518 89.2812ZM610.018 89.64C608.223 89.64 606.698 89.4833 605.421 89.1994L604.119 95.0566C605.914 95.4553 607.888 95.64 610.018 95.64V89.64ZM605.291 89.1736C604.234 88.9871 603.452 88.6375 602.858 88.192L599.258 92.992C600.712 94.0825 602.404 94.7569 604.249 95.0824L605.291 89.1736ZM602.858 88.192C602.353 87.8134 601.903 87.2446 601.563 86.3386L595.945 88.4454C596.629 90.2701 597.715 91.8346 599.258 92.992L602.858 88.192ZM601.563 86.3386C601.225 85.438 600.986 84.043 600.986 82.016H594.986C594.986 84.4263 595.259 86.6153 595.945 88.4454L601.563 86.3386ZM600.986 82.016V32.352H594.986V82.016H600.986ZM597.986 29.352H578.786V35.352H597.986V29.352ZM658.482 16.736L656.961 14.1502L656.063 14.6782L655.686 15.6487L658.482 16.736ZM665.01 14.304L664.263 11.3985L664.253 11.4012L664.242 11.4039L665.01 14.304ZM685.234 15.072L684.132 17.8625L684.176 17.8797L684.22 17.8956L685.234 15.072ZM691.634 20.832L694.469 19.8507L694.465 19.8397L694.461 19.8288L691.634 20.832ZM696.626 36.32L699.496 35.4465L699.496 35.4465L696.626 36.32ZM702.002 54.624L699.116 55.443L699.119 55.4534L702.002 54.624ZM707.25 73.184L704.359 73.9869L704.362 73.9974L707.25 73.184ZM711.73 89.312L714.008 91.2644L715.043 90.0569L714.624 88.5226L711.73 89.312ZM707.122 92.128L706.173 89.2819L706.121 89.2995L706.069 89.319L707.122 92.128ZM694.578 92.768L693.85 95.6784L693.871 95.6835L693.891 95.6883L694.578 92.768ZM691.122 91.232L689.248 93.5746L689.302 93.6177L689.357 93.6582L691.122 91.232ZM688.946 88.544L686.222 89.8012L686.261 89.885L686.305 89.9663L688.946 88.544ZM687.538 84.704L684.635 85.4613L684.647 85.5061L684.66 85.5505L687.538 84.704ZM685.234 75.872L688.137 75.1147L687.552 72.872H685.234V75.872ZM662.066 75.872V72.872H659.761L659.167 75.099L662.066 75.872ZM660.018 83.808L657.108 83.0804L657.108 83.0804L660.018 83.808ZM657.97 91.744L658.979 94.5692L660.463 94.0393L660.869 92.517L657.97 91.744ZM654.13 92.768L653.577 89.8194L653.466 89.8402L653.357 89.8693L654.13 92.768ZM639.666 91.104L637.866 93.504L637.922 93.5457L637.979 93.5848L639.666 91.104ZM637.106 81.248L634.221 80.4238L634.221 80.4238L637.106 81.248ZM638.258 77.024L641.159 77.7875L641.162 77.7769L638.258 77.024ZM640.69 68.448L637.837 67.5207L637.826 67.5532L637.817 67.586L640.69 68.448ZM644.274 57.44L647.126 58.3701L647.129 58.3611L647.132 58.3521L644.274 57.44ZM648.37 45.152L645.536 44.1687L645.536 44.1687L648.37 45.152ZM652.466 33.376L655.299 34.3641L655.302 34.3541L655.306 34.344L652.466 33.376ZM655.922 23.392L653.12 22.3206L653.106 22.3569L653.093 22.3935L655.922 23.392ZM673.842 33.248V30.248H671.68L670.996 32.2993L673.842 33.248ZM669.746 45.28L666.911 44.2987L666.905 44.315L666.9 44.3313L669.746 45.28ZM665.778 58.592L662.877 57.8258L661.883 61.592H665.778V58.592ZM681.65 58.592V61.592H685.527L684.554 57.8391L681.65 58.592ZM677.938 45.152L675.041 45.9319L675.05 45.9653L675.06 45.9985L677.938 45.152ZM674.61 33.248L677.489 32.4053L676.858 30.248H674.61V33.248ZM660.003 19.3218C661.103 18.675 662.969 17.9477 665.778 17.2041L664.242 11.4039C661.249 12.1963 658.763 13.0903 656.961 14.1502L660.003 19.3218ZM665.757 17.2095C668.508 16.5022 671.243 16.152 673.97 16.152V10.152C670.723 10.152 667.486 10.5698 664.263 11.3985L665.757 17.2095ZM673.97 16.152C677.941 16.152 681.309 16.7481 684.132 17.8625L686.335 12.2815C682.673 10.8359 678.532 10.152 673.97 10.152V16.152ZM684.22 17.8956C686.941 18.8722 688.245 20.2519 688.807 21.8352L694.461 19.8288C693.146 16.1215 690.183 13.6611 686.248 12.2484L684.22 17.8956ZM688.799 21.8133C690.32 26.206 691.972 31.3313 693.756 37.1935L699.496 35.4465C697.696 29.5327 696.02 24.3327 694.469 19.8507L688.799 21.8133ZM693.756 37.1935C695.542 43.0622 697.329 49.1454 699.116 55.443L704.888 53.805C703.091 47.4733 701.294 41.3538 699.496 35.4465L693.756 37.1935ZM699.119 55.4534C700.908 61.674 702.655 67.8519 704.359 73.9869L710.141 72.3811C708.431 66.2281 706.68 60.0326 704.885 53.7946L699.119 55.4534ZM704.362 73.9974C706.067 80.0503 707.558 85.418 708.836 90.1014L714.624 88.5226C713.342 83.8194 711.846 78.4351 710.138 72.3706L704.362 73.9974ZM709.452 87.3596C708.89 88.0154 707.89 88.7098 706.173 89.2819L708.071 94.9741C710.45 94.1809 712.522 92.9979 714.008 91.2644L709.452 87.3596ZM706.069 89.319C704.439 89.9302 702.381 90.28 699.826 90.28V96.28C702.903 96.28 705.709 95.8618 708.175 94.937L706.069 89.319ZM699.826 90.28C697.93 90.28 696.425 90.1206 695.265 89.8477L693.891 95.6883C695.633 96.0981 697.626 96.28 699.826 96.28V90.28ZM695.306 89.8576C694.236 89.5903 693.455 89.2194 692.887 88.8058L689.357 93.6582C690.666 94.6099 692.189 95.263 693.85 95.6784L695.306 89.8576ZM692.996 88.8894C692.502 88.4944 692.022 87.9297 691.587 87.1217L686.305 89.9663C687.064 91.377 688.035 92.6043 689.248 93.5746L692.996 88.8894ZM691.67 87.2868C691.232 86.3373 690.811 85.1992 690.416 83.8575L684.66 85.5505C685.119 87.1101 685.636 88.5321 686.222 89.8012L691.67 87.2868ZM690.441 83.9467L688.137 75.1147L682.331 76.6293L684.635 85.4613L690.441 83.9467ZM685.234 72.872H662.066V78.872H685.234V72.872ZM659.167 75.099C658.48 77.675 657.794 80.3355 657.108 83.0804L662.928 84.5356C663.608 81.8192 664.286 79.189 664.965 76.645L659.167 75.099ZM657.108 83.0804C656.428 85.7968 655.75 88.427 655.071 90.971L660.869 92.517C661.556 89.941 662.242 87.2805 662.928 84.5356L657.108 83.0804ZM656.961 88.9188C655.928 89.2877 654.802 89.5897 653.577 89.8194L654.683 95.7166C656.189 95.4343 657.623 95.0537 658.979 94.5692L656.961 88.9188ZM653.357 89.8693C652.41 90.1219 651.109 90.28 649.394 90.28V96.28C651.433 96.28 653.29 96.0968 654.903 95.6667L653.357 89.8693ZM649.394 90.28C645.273 90.28 642.752 89.5745 641.353 88.6232L637.979 93.5848C640.847 95.5348 644.811 96.28 649.394 96.28V90.28ZM641.466 88.704C640.202 87.7564 639.594 86.57 639.594 84.832H633.594C633.594 88.3846 635.033 91.3796 637.866 93.504L641.466 88.704ZM639.594 84.832C639.594 83.9271 639.723 83.0096 639.991 82.0722L634.221 80.4238C633.807 81.8758 633.594 83.3476 633.594 84.832H639.594ZM639.991 82.0722C640.339 80.8518 640.729 79.4226 641.159 77.7875L635.357 76.2605C634.934 77.868 634.555 79.2549 634.221 80.4238L639.991 82.0722ZM641.162 77.7769C641.746 75.5226 642.546 72.703 643.563 69.31L637.817 67.586C636.786 71.0196 635.964 73.9174 635.354 76.2711L641.162 77.7769ZM643.543 69.3753C644.652 65.963 645.846 62.2946 647.126 58.3701L641.422 56.5099C640.142 60.4361 638.947 64.1063 637.837 67.5207L643.543 69.3753ZM647.132 58.3521C648.404 54.3665 649.761 50.2942 651.204 46.1353L645.536 44.1687C644.077 48.3725 642.704 52.4922 641.416 56.5279L647.132 58.3521ZM651.204 46.1353C652.654 41.9554 654.019 38.0316 655.299 34.3641L649.633 32.3879C648.353 36.059 646.987 39.986 645.536 44.1687L651.204 46.1353ZM655.306 34.344C656.583 30.5968 657.731 27.2793 658.751 24.3905L653.093 22.3935C652.065 25.3074 650.909 28.6459 649.626 32.408L655.306 34.344ZM658.724 24.4634C659.833 21.5636 660.684 19.3513 661.278 17.8233L655.686 15.6487C655.086 17.1927 654.23 19.4177 653.12 22.3206L658.724 24.4634ZM670.996 32.2993C669.806 35.8702 668.444 39.8697 666.911 44.2987L672.581 46.2613C674.12 41.8156 675.489 37.7938 676.688 34.1967L670.996 32.2993ZM666.9 44.3313C665.429 48.7447 664.088 53.243 662.877 57.8258L668.679 59.3582C669.857 54.8957 671.162 50.5193 672.592 46.2287L666.9 44.3313ZM665.778 61.592H681.65V55.592H665.778V61.592ZM684.554 57.8391C683.352 53.2013 682.106 48.69 680.816 44.3055L675.06 45.9985C676.33 50.318 677.559 54.7667 678.746 59.3449L684.554 57.8391ZM680.835 44.3721C679.636 39.9189 678.521 35.9294 677.489 32.4053L671.731 34.0907C672.747 37.564 673.851 41.5105 675.041 45.9319L680.835 44.3721ZM674.61 30.248H673.842V36.248H674.61V30.248Z" fill="white"/>
<path d="M321.693 87.703L307.664 53.1236L357.362 72.6905L321.693 87.703Z" fill="#F20202" fill-opacity="0.87"/>
<ellipse cx="342.143" cy="41.0107" rx="36.8571" ry="35.0107" fill="#F20202" fill-opacity="0.87"/>
<ellipse cx="342.143" cy="41.0106" rx="24.5714" ry="23.3405" fill="white"/>
<ellipse cx="342.143" cy="41.0107" rx="16.381" ry="15.5603" fill="#F20202" fill-opacity="0.87"/>
</g>
<defs>
<clipPath id="clip0_10_2">
<rect width="732" height="97" fill="white"/>
</clipPath>
</defs>
</svg>
